PathFileType	4	(X/Y/Z)	c:/Users/goper/Files/vsCode/490R/osim_files/A04/A04_Slow_03.trc
DataRate	CameraRate	NumFrames	NumMarkers	Units                	OrigDataRate	OrigDataStartFrame	OrigNumFrames
120.00	120.00	9	36	mm	120.0	1036	1380
                Frame#	Time	LPSIS			LASIS			LTH1			LTH2			LTH3			LTH4			LLFE			LMFE			LSH1			LSH2			LSH3			LSH4			LLMAL			LMMAL			LCAL			LMTP5			LTOE			LMTP1			RPSIS			RASIS			RTH1			RTH2			RTH3			RTH4			RLFE			RMFE			RSH1			RSH2			RSH3			RSH4			RLMAL			RMMAL			RCAL			RMTP1			RTOE			RMTP5		
		X1	Y1	Z1	X2	Y2	Z2	X3	Y3	Z3	X4	Y4	Z4	X5	Y5	Z5	X6	Y6	Z6	X7	Y7	Z7	X8	Y8	Z8	X9	Y9	Z9	X10	Y10	Z10	X11	Y11	Z11	X12	Y12	Z12	X13	Y13	Z13	X14	Y14	Z14	X15	Y15	Z15	X16	Y16	Z16	X17	Y17	Z17	X18	Y18	Z18	X19	Y19	Z19	X20	Y20	Z20	X21	Y21	Z21	X22	Y22	Z22	X23	Y23	Z23	X24	Y24	Z24	X25	Y25	Z25	X26	Y26	Z26	X27	Y27	Z27	X28	Y28	Z28	X29	Y29	Z29	X30	Y30	Z30	X31	Y31	Z31	X32	Y32	Z32	X33	Y33	Z33	X34	Y34	Z34	X35	Y35	Z35	X36	Y36	Z36

1036	8.62500	-2769.34839	1048.34277	333.72910	-2996.67212	1011.29535	413.40063	-3004.12427	695.68567	429.15665	-3023.87402	655.91113	426.81497	-3060.19531	720.02374	424.47485	-3073.95679	678.25342	424.64218	-3091.41577	535.23676	412.78549	-3116.28101	547.93127	275.91888	-3105.08594	427.52042	409.69766	-3129.47144	393.38647	409.76904	-3160.43481	458.35498	404.96915	-3178.01147	419.54382	406.44659	-3237.82397	130.74141	367.87732	-3263.74878	148.91040	285.30194	-3197.76196	74.48225	301.72675	-3384.89819	129.64511	416.41885	-3427.02271	164.82898	359.86877	-3422.80225	149.03279	314.97568	-2767.12573	1038.34058	227.80498	0.00000	0.00000	0.00000	-2804.94409	735.05499	104.67095	-2802.46387	692.53204	108.47610	-2865.23022	724.06482	95.70885	-2855.18701	678.57629	103.86603	-2820.43896	544.18127	133.46913	-2835.23022	542.28876	249.35463	-2704.77197	354.49475	148.72141	-2699.51245	307.78192	156.58199	-2763.36328	338.92520	140.79346	-2749.11719	294.26947	147.39444	-2679.70459	112.70201	158.45688	-2713.87183	121.26891	287.64774	-2607.94458	77.04438	239.88403	-2830.57983	56.38363	265.78757	-2852.41016	77.01971	217.57239	-2816.49048	54.61272	146.91638
1037	8.63333	-2778.26147	1046.84326	334.76010	-3005.80273	1009.72839	413.60004	-3011.19409	693.24786	427.97437	-3030.28784	653.41351	425.20737	-3067.51562	717.42957	423.26746	-3081.05884	675.66339	423.18768	-3097.13403	532.56689	411.00629	-3120.46948	545.31256	274.28604	-3111.07617	425.40244	407.67590	-3136.88379	390.34753	407.82959	0.00000	0.00000	0.00000	-3182.64673	416.66916	402.66965	-3247.50732	129.54164	366.73996	-3272.97388	147.60075	283.90164	-3208.73145	71.65821	300.15442	-3391.04810	130.00871	414.87784	-3435.45874	167.49220	359.48581	-3431.85840	151.41864	314.58206	-2774.27344	1037.13953	228.66760	0.00000	0.00000	0.00000	-2811.77271	734.67175	105.02300	-2809.05591	692.11182	108.70747	-2871.38721	723.28369	95.90316	-2860.91309	677.91101	104.00546	-2825.16113	543.59161	133.48792	-2842.14233	541.57355	250.10947	-2707.75830	355.02695	148.88046	-2702.11914	308.17062	156.74823	-2767.85352	338.76816	141.26714	-2751.48584	294.32599	147.46812	-2678.71558	113.39035	157.92667	-2714.62695	121.70741	287.66418	-2608.68140	78.02896	239.74937	-2830.69995	56.21040	265.86917	-2852.53149	76.78912	217.58629	-2816.79761	54.67663	146.91400
1038	8.64167	-2786.90942	1045.43408	335.89636	-3014.88257	1008.15991	413.80176	-3018.57031	690.99579	426.77438	-3037.47607	651.07697	423.90106	-3075.06030	714.90344	422.09482	-3088.40112	673.10687	421.92712	-3103.35498	529.87427	409.43704	-3128.30225	542.81439	272.60233	-3118.79907	423.53058	408.88522	-3143.92261	388.44254	406.14908	-3174.12671	453.73322	403.74954	-3190.05713	414.28241	401.34045	-3255.38794	127.03553	365.73392	-3280.19897	145.21950	282.41333	-3218.21680	67.69167	298.71237	-3398.08545	131.18675	414.21970	-3441.33276	169.51985	359.37421	-3437.45947	152.14081	312.94168	-2783.46729	1035.65930	229.80722	0.00000	0.00000	0.00000	-2816.81177	734.62561	105.12411	-2814.24487	692.01459	108.95379	-2877.51001	722.51666	95.98318	-2866.76221	677.28479	104.19464	-2829.20972	543.18768	133.40314	-2846.81519	540.62201	249.50621	-2710.91895	355.41589	149.01990	-2704.77393	308.73911	156.81464	-2769.21118	338.83499	141.00241	-2752.97656	294.59888	147.28809	-2681.19360	114.35482	158.55804	-2715.87256	122.05928	287.85538	-2608.79004	79.42063	239.85071	-2830.83423	55.99223	265.89236	-2852.70752	76.52110	217.65297	-2817.08521	54.68638	146.86555
1039	8.65000	-2797.49609	1043.61768	337.16495	-3024.12939	1006.60333	414.00128	-3027.49512	689.00049	427.27960	-3045.94775	648.84119	423.22110	-3082.70410	711.94617	420.17682	-3096.14771	670.78564	420.86847	-3109.95166	527.30750	408.28403	-3134.52563	540.06635	271.31238	0.00000	0.00000	0.00000	-3150.64917	385.85501	405.09900	-3180.84204	451.19894	402.51004	-3196.64185	411.63110	400.09216	-3261.35010	124.19950	363.99353	-3286.00293	141.82031	280.46259	-3225.47339	63.29563	297.32043	-3403.60791	131.71548	413.24057	-3446.70215	169.59364	358.45883	-3443.32397	152.01173	311.95303	-2792.10205	1034.14221	230.90005	0.00000	0.00000	0.00000	-2823.30762	734.36127	105.49169	-2821.27661	691.52649	109.33710	-2883.71948	721.80701	96.07265	-2872.52661	676.61450	104.27708	-2834.26587	542.68231	133.39232	-2853.71265	540.48608	250.30055	-2714.20117	355.88428	149.13484	-2707.60498	309.19177	157.01163	-2772.22217	338.90701	141.01956	-2755.58496	294.74680	147.31845	-2681.95752	115.23141	158.63191	-2716.83496	122.54465	287.90775	-2609.74658	80.62112	239.86874	-2831.01172	55.78361	265.98157	-2852.88379	76.32772	217.64197	-2813.95947	53.53362	145.28531
1040	8.65833	-2805.25366	1042.39282	337.98801	-3033.40723	1004.97675	414.31305	-3035.59082	687.00525	426.64703	-3053.31763	646.87335	422.22964	-3091.03711	709.70697	419.42014	-3104.34985	668.56567	420.22418	-3116.71289	524.73749	407.43872	-3140.83984	537.26465	270.43790	-3131.76196	417.87994	406.12750	-3156.83374	382.66489	404.40143	-3187.31689	448.40317	401.68298	-3202.33984	408.98886	399.01303	-3266.26416	121.62702	361.84436	-3290.91455	137.95123	278.13815	-3230.72949	59.65313	296.13989	-3407.97266	130.63414	411.69046	-3452.12329	167.86346	356.59525	-3448.14160	148.99307	310.39780	-2800.96729	1032.63403	231.93742	0.00000	0.00000	0.00000	-2829.58667	734.41473	105.50182	-2825.74023	691.76013	109.50146	-2889.95923	721.06036	96.19718	-2876.77222	676.17346	103.82381	-2839.45142	542.08691	133.30853	-2856.40527	539.42529	249.52336	-2717.50537	356.48337	149.19144	-2711.41675	309.36084	156.82771	-2775.37427	338.81113	141.00755	-2759.31323	296.29895	147.21172	-2682.10254	116.00255	158.24365	-2717.74634	123.11406	287.90228	-2609.70581	82.28104	240.02750	-2831.17773	55.56418	266.04208	-2853.06592	76.13556	217.60381	-2814.11523	53.41244	145.22153
1041	8.66667	-2814.57080	1040.90833	338.96411	-3042.95459	1003.36536	414.57468	-3044.14185	685.27521	426.31384	-3062.19678	644.98370	422.13974	-3099.58203	707.55786	418.96848	-3112.70435	666.51843	419.83038	-3123.40015	521.99805	407.70581	-3147.50024	534.96002	269.96887	-3137.92920	415.48178	405.69888	-3162.68970	380.55984	403.58051	-3193.60864	445.71024	401.01212	-3210.64795	407.21698	400.63278	-3270.24512	120.78254	359.19485	-3295.86401	134.34619	275.75647	-3233.34473	59.22190	295.08636	-3413.50732	128.03419	409.64178	-3456.94360	161.71338	353.58871	-3453.38159	142.38828	308.34698	-2809.57935	1031.29944	232.91138	0.00000	0.00000	0.00000	-2835.93848	734.21283	105.75878	-2832.61572	691.39532	110.05864	-2898.19971	720.21222	96.70190	-2882.80444	675.53973	103.83765	-2844.82471	541.45941	133.29393	-2862.20874	538.69958	249.41209	-2721.02539	357.03125	149.22476	-2712.44092	310.82660	156.67770	-2780.35400	338.70169	141.45081	-2762.67065	296.97351	146.90950	-2683.80054	117.22306	158.64708	-2718.96118	123.74792	287.89291	-2610.53857	83.80544	239.94284	-2831.39673	55.38357	266.13885	-2853.43018	75.97807	217.62445	-2814.33667	53.30257	145.17703
1042	8.67500	-2823.65112	1039.47278	339.83124	-3052.56958	1001.71387	414.82047	-3052.58374	683.56158	426.25018	-3069.77197	643.21741	421.82278	-3108.17529	705.55585	418.79013	-3120.88721	664.36255	419.74725	-3130.35034	520.33014	407.81067	-3153.64380	533.13928	269.88022	-3143.87500	413.67462	405.57129	-3168.24243	377.96368	403.50922	-3199.69165	443.61841	400.61743	-3216.51978	405.01141	400.22617	-3272.58350	119.80171	355.44162	-3303.66040	130.98454	274.27267	-3234.59839	59.86314	294.18768	-3410.30640	114.02937	404.75958	-3463.48975	151.75465	351.10742	-3459.26953	132.53188	306.94983	-2818.63184	1029.72351	233.90134	0.00000	0.00000	0.00000	-2842.65405	733.96674	106.29028	-2839.88013	690.94037	110.47130	-2904.86816	719.48859	96.83884	-2888.94263	674.85657	103.84832	-2850.48071	540.89532	133.12694	-2868.27734	537.93176	249.12074	-2724.59619	357.49860	149.19974	-2716.60303	311.07642	157.08040	-2781.30469	337.69742	141.48267	-2765.92334	297.45660	146.53993	-2683.98853	118.00724	158.24564	-2719.51758	124.44923	287.75070	-2611.20117	85.32745	239.99922	-2831.59521	55.18427	266.19958	-2853.67871	75.77800	217.57591	-2814.53320	53.22424	145.11507
1043	8.68333	-2834.43359	1037.69324	340.90482	-3062.49365	1000.08655	415.16431	-3060.79541	682.04907	426.37390	-3077.86646	641.55042	421.98352	-3115.13062	703.31091	418.39862	-3129.26782	662.74054	419.93488	-3137.41479	519.43970	407.53552	-3159.63062	531.21216	270.00412	-3149.70923	411.92133	405.86340	-3174.06177	376.54178	403.42026	-3206.05273	441.65784	400.65607	-3222.38843	402.83127	400.17249	-3278.92090	118.20131	356.74908	-3308.54980	128.39339	274.15750	-3236.16187	60.70362	294.18369	-3419.84888	109.52650	405.82944	-3469.96338	141.00812	349.27170	-3463.63110	121.44059	304.47571	-2827.63062	1028.11755	234.86119	0.00000	0.00000	0.00000	-2849.34473	733.63873	106.73450	-2846.47339	690.54041	110.96876	-2909.60181	718.73065	96.40678	-2894.64404	673.19794	103.91505	-2856.18530	540.12421	133.00485	0.00000	0.00000	0.00000	-2728.32715	358.01807	149.13339	-2719.79395	311.58945	157.12149	-2784.86377	337.53271	141.47211	-2768.89697	297.38712	146.42993	-2685.71704	119.27804	158.72507	-2721.00659	125.03207	287.83740	-2611.75610	87.13504	239.88681	-2831.85254	55.03397	266.28842	-2853.88477	75.52644	217.58829	-2814.73682	53.12394	145.03876
1044	8.69167	-2843.99292	1036.14807	341.84958	-3072.55811	998.50549	415.41400	-3069.02563	680.58618	426.71130	-3085.87500	640.00507	422.43982	-3124.92139	702.03070	418.98541	-3138.96265	662.14154	420.53351	-3143.79175	517.62073	407.77042	-3165.50317	529.27429	270.36441	-3155.77563	410.39923	406.53061	-3179.93115	374.82681	404.04590	-3211.72119	438.86386	399.94708	-3231.64551	403.21951	401.25757	-3284.32153	116.31579	358.09940	-3310.09326	128.07115	274.94977	-3238.55518	61.86742	295.30301	-3430.67969	106.20891	407.53699	-3476.59595	132.44084	348.09189	-3469.10449	114.10921	303.58267	-2836.83838	1026.61243	235.84514	0.00000	0.00000	0.00000	-2856.51807	733.11804	107.19819	-2853.10645	690.12164	111.31590	-2916.47290	717.73907	96.45473	-2903.74243	673.21021	104.30781	-2862.16870	539.34235	132.98982	-2880.83423	535.93695	248.60933	-2732.33154	358.46240	149.19530	-2723.12671	312.31580	157.11902	-2788.60107	337.46173	141.54044	-2771.85791	297.08392	146.60716	-2686.88452	120.42603	158.71274	-2722.11743	125.78149	287.82864	-2612.25317	88.91908	239.93417	-2832.07666	54.89356	266.38318	-2854.09888	75.30819	217.53928	-2815.79175	52.86201	145.03993
